<?xml version="1.0" encoding="utf-8"?>
<!-- Generator: Adobe Illustrator 26.0.2, SVG Export Plug-In . SVG Version: 6.00 Build 0)  -->
<svg version="1.1" id="Layer_1" xmlns="http://www.w3.org/2000/svg" xmlns:xlink="http://www.w3.org/1999/xlink" x="0px" y="0px"
	 viewBox="0 0 401.1 273.61" style="enable-background:new 0 0 401.1 273.61;" xml:space="preserve">
<style type="text/css">
	.st0{fill-rule:evenodd;clip-rule:evenodd;fill:#1875E8;}
	.st1{fill-rule:evenodd;clip-rule:evenodd;fill:#464545;}
	.st2{fill:#FFFFFF;}
	.st3{fill-rule:evenodd;clip-rule:evenodd;fill:#FFFFFF;}
	.st4{fill:#464545;}
</style>
<g>
	<polygon class="st0" points="-2599.83,17.52 -2931.41,85.74 -2931.41,187.87 -2599.83,256.09 	"/>
	<path class="st1" d="M-3075.06,88.9h7.54c0.38,0,0.7,0.32,0.7,0.7v75.44c0,0.38-0.31,0.69-0.7,0.7h-7.54c-0.38,0-0.69-0.31-0.7-0.7
		V89.6C-3075.75,89.22-3075.44,88.9-3075.06,88.9z M-3023.25,150.98v1.9c0,0.82-0.13,1.96-0.44,3.42c-0.25,1.39-1.01,2.85-2.22,4.24
		c-1.2,1.39-2.98,2.66-5.38,3.67c-2.41,1.01-5.7,1.52-9.94,1.52c-4.25,0-7.54-0.51-9.94-1.52s-4.18-2.22-5.38-3.67
		c-1.2-1.39-1.97-2.85-2.22-4.31c-0.25-1.46-0.44-2.53-0.44-3.36v-42.94c0-0.38,0.32-0.7,0.7-0.7h7.54c0.38,0,0.7,0.31,0.7,0.7
		v40.22c0,1.33,0.19,2.28,0.38,3.04c0.19,0.76,0.57,1.52,1.14,2.15c0.57,0.7,1.46,1.27,2.66,1.71c1.14,0.44,2.72,0.7,4.69,0.7
		c2.03,0,3.67-0.26,4.87-0.7c1.2-0.45,2.09-1.01,2.73-1.65c0.63-0.63,1.07-1.33,1.27-2.09c0.19-0.76,0.44-1.39,0.44-3.23v-40.16
		c0-0.38,0.32-0.7,0.7-0.7h7.54c0.38,0,0.7,0.31,0.7,0.7v41.05L-3023.25,150.98L-3023.25,150.98z M-2997.59,109.24h5.07
		c0.45,0,0.76,0.44,0.63,0.89l-1.71,6.59c-0.06,0.32-0.38,0.51-0.63,0.51h-3.55c-1.9,0-3.42,0.26-4.62,0.76
		c-1.14,0.51-2.09,1.08-2.72,1.77c-0.56,0.59-0.97,1.31-1.2,2.09c-0.19,0.76-0.26,1.46-0.26,2.09v41.17c0,0.38-0.31,0.69-0.7,0.7
		h-7.6c-0.38,0-0.69-0.31-0.7-0.7v-42.94c0-0.76,0.13-1.9,0.44-3.36c0.25-1.46,1.01-2.85,2.22-4.31c1.2-1.39,2.98-2.66,5.38-3.67
		C-3005.19,109.74-3001.83,109.24-2997.59,109.24z M-3101.15,109.24c6.14,0,10.64,1.2,13.55,3.61c2.85,2.41,4.31,5.45,4.31,9.06
		v31.04c0,1.27-0.25,2.66-0.7,4.12c-0.44,1.52-1.33,2.91-2.66,4.12c-1.33,1.27-3.17,2.28-5.45,3.17c-2.28,0.82-5.32,1.27-8.99,1.27
		c-3.74,0-6.71-0.44-8.99-1.27s-4.12-1.9-5.45-3.17c-1.33-1.27-2.22-2.66-2.66-4.12c-0.44-1.52-0.7-2.91-0.7-4.11V148
		c0-2.66,0.7-5.07,2.03-7.22c1.39-2.15,3.29-3.74,5.83-4.62c1.27-0.44,2.66-0.89,4.31-1.46c1.58-0.57,3.17-1.07,4.69-1.65
		c1.52-0.51,2.79-1.01,3.93-1.39c1.14-0.44,1.84-0.63,2.09-0.76c0.25-0.13,0.63-0.32,1.07-0.57c0.45-0.25,0.89-0.63,1.33-1.07
		c0.45-0.51,0.76-1.08,1.08-1.65c0.32-0.63,0.45-1.39,0.45-2.22v-1.96c0-0.7-0.13-1.39-0.45-2.15c-0.25-0.76-0.76-1.39-1.46-2.03
		c-0.7-0.63-1.65-1.14-2.79-1.52c-1.14-0.38-2.59-0.57-4.37-0.57c-3.48,0-5.83,0.7-7.09,2.15c-1.09,1.28-1.74,2.88-1.84,4.56
		c0,0.38-0.32,0.63-0.7,0.63h-7.6c-0.38,0-0.69-0.31-0.7-0.7v-1.84c0-1.77,0.32-3.42,1.01-4.94c0.63-1.52,1.71-2.92,3.23-4.06
		c1.46-1.14,3.3-2.09,5.58-2.72C-3107.04,109.61-3104.32,109.24-3101.15,109.24z M-3092.16,137.04c-0.12,0.66-0.51,1.23-1.08,1.58
		c-0.57,0.38-1.07,0.57-1.58,0.76c-1.07,0.38-2.22,0.76-3.42,1.2c-1.2,0.44-2.34,0.89-3.42,1.2c-1.27,0.45-2.47,0.82-3.55,1.27
		c-0.86,0.38-1.67,0.87-2.41,1.46c-0.63,0.57-1.21,1.27-1.71,2.15c-0.5,0.89-0.76,1.97-0.76,3.29c0,2.66,0.63,4.62,1.9,5.95
		c1.27,1.27,3.61,1.96,7.03,1.96c3.48,0,5.89-0.7,7.16-2.03c1.27-1.39,1.9-3.29,1.9-5.83v-12.98H-3092.16z M-2970.61,109.24
		c6.14,0,10.64,1.2,13.55,3.61c2.85,2.41,4.31,5.45,4.31,9.06v31.04c0,1.27-0.25,2.66-0.7,4.12c-0.45,1.52-1.33,2.91-2.66,4.12
		c-1.33,1.27-3.17,2.28-5.45,3.17c-2.28,0.82-5.32,1.27-8.99,1.27c-3.74,0-6.71-0.44-8.99-1.27s-4.12-1.9-5.45-3.17
		c-1.33-1.27-2.22-2.66-2.66-4.12c-0.44-1.52-0.7-2.91-0.7-4.11V148c0-2.66,0.7-5.07,2.03-7.22c1.39-2.15,3.29-3.74,5.83-4.62
		c1.27-0.44,2.66-0.89,4.31-1.46c1.58-0.57,3.17-1.07,4.69-1.65c1.52-0.51,2.79-1.01,3.93-1.39c1.14-0.44,1.84-0.63,2.09-0.76
		c0.25-0.13,0.63-0.32,1.07-0.57c0.45-0.25,0.89-0.63,1.33-1.07c0.45-0.51,0.76-1.08,1.08-1.65c0.32-0.63,0.44-1.39,0.44-2.22v-1.96
		c0-0.7-0.13-1.39-0.44-2.15c-0.25-0.76-0.76-1.39-1.46-2.03c-0.69-0.63-1.65-1.14-2.78-1.52c-1.14-0.38-2.6-0.57-4.37-0.57
		c-3.49,0-5.83,0.7-7.09,2.15c-1.09,1.28-1.74,2.88-1.84,4.56c0,0.38-0.32,0.63-0.7,0.63h-7.6c-0.38,0-0.69-0.31-0.7-0.7v-1.84
		c0-1.77,0.32-3.42,1.01-4.94c0.63-1.52,1.71-2.92,3.23-4.06c1.46-1.14,3.29-2.09,5.57-2.72
		C-2976.43,109.61-2973.78,109.24-2970.61,109.24z M-2961.61,137.04c-0.12,0.66-0.51,1.23-1.08,1.58c-0.57,0.38-1.07,0.57-1.58,0.76
		c-1.07,0.38-2.22,0.76-3.42,1.2c-1.2,0.44-2.34,0.89-3.42,1.2c-1.27,0.45-2.47,0.82-3.55,1.27c-0.86,0.38-1.67,0.87-2.41,1.46
		c-0.63,0.57-1.2,1.27-1.71,2.15c-0.51,0.89-0.76,1.97-0.76,3.29c0,2.66,0.63,4.62,1.9,5.95c1.27,1.27,3.61,1.96,7.03,1.96
		c3.48,0,5.89-0.7,7.16-2.03c1.27-1.39,1.9-3.29,1.9-5.83v-12.98H-2961.61z"/>
	<g>
		<path class="st2" d="M-2908.77,165.14v-56.55h33.8v12.37h-20.75v9.72h18.68v12.37h-18.68v22.09H-2908.77z"/>
		<path class="st2" d="M-2857.13,108.58v56.55h-13.05v-56.55H-2857.13z"/>
		<path class="st2" d="M-2850.94,165.14v-56.55h13.05v44.18h19.44v12.37H-2850.94z"/>
		<path class="st2" d="M-2813.2,108.58h16.24l11.17,32.03h0.56l11.17-32.03h16.24v56.55h-12.77v-32.7h-0.38l-10.7,32.25h-7.7
			l-10.7-32.47h-0.38v32.92h-12.77V108.58z"/>
		<path class="st2" d="M-2725.69,126.26c-0.13-1.84-0.71-3.28-1.75-4.31c-1.04-1.03-2.62-1.55-4.73-1.55
			c-2.02,0-3.49,0.41-4.41,1.22c-0.92,0.81-1.39,1.84-1.41,3.09c-0.06,1.34,0.43,2.44,1.49,3.29c1.06,0.85,2.72,1.56,4.99,2.13
			l3.94,0.99c5.31,1.34,9.13,3.49,11.48,6.45c2.35,2.96,3.53,6.59,3.54,10.89c-0.02,5.58-1.75,9.86-5.21,12.85
			c-3.46,2.99-8.23,4.49-14.32,4.49c-4.18,0-7.82-0.73-10.93-2.18c-3.11-1.45-5.52-3.7-7.23-6.72c-1.71-3.03-2.58-6.91-2.59-11.64
			h12.39c0.11,2.6,0.87,4.57,2.29,5.92c1.42,1.35,3.38,2.03,5.88,2.03c2.1,0,3.68-0.44,4.75-1.33c1.07-0.88,1.62-2.02,1.63-3.42
			c-0.02-1.29-0.56-2.36-1.62-3.22c-1.06-0.86-2.93-1.62-5.61-2.31l-4.79-1.22c-4.26-1.09-7.61-2.9-10.06-5.45
			c-2.45-2.55-3.67-6.03-3.65-10.45c-0.02-3.59,0.8-6.73,2.45-9.43c1.65-2.7,3.94-4.8,6.88-6.31c2.93-1.51,6.3-2.26,10.1-2.26
			c3.88,0,7.24,0.76,10.07,2.29c2.83,1.53,5.02,3.68,6.56,6.45c1.54,2.77,2.32,6.01,2.34,9.71H-2725.69z"/>
	</g>
</g>
<g>
	<path class="st3" d="M107.95,0h17.83c0.9,0,1.65,0.75,1.65,1.65v178.46c-0.01,0.91-0.74,1.64-1.65,1.65h-17.83
		c-0.91-0.01-1.64-0.74-1.65-1.65V1.65C106.3,0.75,107.04,0,107.95,0z M230.51,146.84v4.5c0,1.95-0.3,4.64-1.05,8.09
		c-0.6,3.29-2.4,6.74-5.24,10.04c-2.85,3.3-7.04,6.3-12.74,8.69c-5.69,2.4-13.49,3.6-23.52,3.6c-10.04,0-17.83-1.2-23.52-3.6
		c-5.69-2.4-9.89-5.25-12.74-8.69c-2.85-3.3-4.65-6.74-5.25-10.19c-0.6-3.45-1.05-5.99-1.05-7.94V49.75c0-0.9,0.75-1.65,1.65-1.65
		h17.83c0.9,0,1.65,0.74,1.65,1.65v95.15c0,3.15,0.45,5.39,0.9,7.19c0.45,1.8,1.34,3.6,2.69,5.09c1.35,1.65,3.45,3,6.3,4.05
		c2.69,1.05,6.44,1.65,11.09,1.65c4.79,0,8.69-0.61,11.53-1.65c2.85-1.05,4.95-2.4,6.45-3.9c1.5-1.5,2.54-3.15,3-4.95
		c0.45-1.8,1.05-3.29,1.05-7.64v-95c0-0.9,0.75-1.65,1.65-1.65h17.83c0.9,0,1.65,0.74,1.65,1.65v97.1L230.51,146.84L230.51,146.84z
		 M291.2,48.1h11.99c1.05,0,1.8,1.05,1.5,2.09l-4.04,15.58c-0.15,0.75-0.9,1.2-1.5,1.2h-8.39c-4.5,0-8.09,0.61-10.94,1.8
		c-2.69,1.2-4.95,2.55-6.44,4.2c-1.33,1.4-2.31,3.09-2.85,4.95c-0.45,1.8-0.61,3.45-0.61,4.95v97.4c-0.01,0.91-0.74,1.64-1.65,1.65
		H250.3c-0.91-0.01-1.64-0.74-1.65-1.65V78.67c0-1.8,0.3-4.5,1.05-7.94c0.6-3.45,2.4-6.74,5.24-10.19c2.85-3.3,7.05-6.3,12.74-8.69
		C273.22,49.3,281.16,48.1,291.2,48.1z M46.21,48.1c14.53,0,25.17,2.85,32.07,8.54c6.74,5.7,10.19,12.89,10.19,21.43v73.42
		c0,3-0.6,6.3-1.65,9.74c-1.05,3.6-3.15,6.89-6.3,9.74c-3.15,3-7.49,5.39-12.88,7.49c-5.4,1.95-12.59,3-21.28,3
		c-8.84,0-15.88-1.05-21.28-3c-5.39-1.95-9.75-4.49-12.89-7.49c-3.15-3-5.24-6.3-6.3-9.75c-1.05-3.59-1.65-6.89-1.65-9.73v-11.68
		c0-6.3,1.65-11.99,4.79-17.09c3.3-5.09,7.79-8.84,13.79-10.94c3-1.05,6.3-2.09,10.19-3.44c3.75-1.35,7.49-2.54,11.08-3.9
		c3.6-1.2,6.6-2.4,9.29-3.29c2.7-1.05,4.35-1.5,4.95-1.8c0.6-0.3,1.5-0.75,2.54-1.35c1.05-0.6,2.1-1.5,3.15-2.54
		c1.05-1.2,1.8-2.55,2.55-3.9c0.75-1.5,1.05-3.3,1.05-5.25v-4.64c0-1.65-0.3-3.29-1.05-5.09c-0.6-1.8-1.8-3.3-3.44-4.8
		c-1.65-1.5-3.9-2.69-6.6-3.6c-2.69-0.9-6.14-1.34-10.33-1.34c-8.24,0-13.78,1.65-16.78,5.09c-2.58,3.03-4.11,6.81-4.35,10.79
		c0,0.9-0.75,1.5-1.65,1.5H5.46c-0.91-0.01-1.64-0.74-1.65-1.65v-4.35c0-4.2,0.75-8.09,2.4-11.68c1.5-3.6,4.04-6.9,7.64-9.59
		c3.45-2.7,7.8-4.95,13.19-6.44C32.28,49,38.72,48.1,46.21,48.1z M67.49,113.88c-0.28,1.55-1.2,2.92-2.55,3.75
		c-1.35,0.9-2.54,1.34-3.75,1.8c-2.54,0.9-5.24,1.8-8.09,2.85c-2.85,1.05-5.55,2.1-8.09,2.85c-3,1.05-5.84,1.95-8.39,3
		c-2.04,0.89-3.96,2.05-5.69,3.45c-1.5,1.34-2.85,3-4.06,5.09c-1.19,2.1-1.79,4.65-1.79,7.79c0,6.3,1.5,10.94,4.49,14.09
		c3,3,8.54,4.64,16.64,4.64c8.24,0,13.94-1.65,16.93-4.79c3-3.29,4.5-7.79,4.5-13.78v-30.72H67.49z M355.04,48.1
		c14.53,0,25.17,2.85,32.07,8.54c6.74,5.7,10.19,12.89,10.19,21.43v73.42c0,3-0.6,6.3-1.65,9.74c-1.05,3.6-3.15,6.89-6.3,9.74
		c-3.15,3-7.49,5.39-12.89,7.49c-5.39,1.95-12.59,3-21.27,3c-8.84,0-15.88-1.05-21.28-3c-5.39-1.95-9.75-4.49-12.89-7.49
		c-3.15-3-5.24-6.3-6.3-9.75c-1.05-3.59-1.65-6.89-1.65-9.73v-11.68c0-6.3,1.65-11.99,4.79-17.09c3.3-5.09,7.79-8.84,13.78-10.94
		c3-1.05,6.3-2.09,10.19-3.44c3.74-1.35,7.49-2.54,11.08-3.9c3.6-1.2,6.6-2.4,9.29-3.29c2.69-1.05,4.35-1.5,4.95-1.8
		c0.6-0.3,1.5-0.75,2.54-1.35c1.05-0.6,2.1-1.5,3.15-2.54c1.05-1.2,1.8-2.55,2.55-3.9c0.75-1.5,1.05-3.3,1.05-5.25v-4.64
		c0-1.65-0.3-3.29-1.05-5.09c-0.6-1.8-1.8-3.3-3.45-4.8c-1.64-1.5-3.89-2.69-6.59-3.6c-2.7-0.9-6.14-1.34-10.34-1.34
		c-8.24,0-13.78,1.65-16.78,5.09c-2.58,3.03-4.11,6.81-4.35,10.79c0,0.9-0.75,1.5-1.65,1.5h-17.98c-0.91-0.01-1.64-0.74-1.65-1.65
		v-4.35c0-4.2,0.75-8.09,2.4-11.68c1.5-3.6,4.04-6.9,7.64-9.59c3.45-2.7,7.79-4.95,13.18-6.44C341.25,49,347.54,48.1,355.04,48.1z
		 M376.31,113.88c-0.28,1.55-1.2,2.92-2.55,3.75c-1.35,0.9-2.54,1.34-3.75,1.8c-2.54,0.9-5.24,1.8-8.09,2.85
		c-2.85,1.05-5.54,2.1-8.09,2.85c-3,1.05-5.85,1.95-8.39,3c-2.04,0.89-3.96,2.05-5.7,3.45c-1.5,1.34-2.85,3-4.04,5.09
		c-1.2,2.1-1.8,4.65-1.8,7.79c0,6.3,1.5,10.94,4.49,14.09c3,3,8.54,4.64,16.64,4.64c8.24,0,13.94-1.65,16.93-4.79
		c3-3.29,4.49-7.79,4.49-13.78v-30.72H376.31z"/>
	<rect y="210.69" class="st2" width="401.1" height="3.5"/>
	<rect y="270.11" class="st2" width="401.1" height="3.5"/>
	<path class="st2" d="M21.34,226.03v4.55H6.92v10.02h11.24v4.55H6.92V260H1.34v-33.97H21.34z"/>
	<path class="st2" d="M100.24,226.03V260h-5.57v-33.97H100.24z"/>
	<path class="st2" d="M181.29,255.5h11.49v4.5h-17.06v-33.97h5.57V255.5z"/>
	<path class="st2" d="M301.35,226.03V260h-5.57v-23.27L285.41,260h-3.86l-10.41-23.27V260h-5.57v-33.97h6.01l11.93,26.64
		l11.88-26.64H301.35z"/>
	<path class="st2" d="M381.86,259.14c-1.83-0.8-3.26-1.93-4.3-3.4c-1.04-1.47-1.56-3.18-1.56-5.13h5.96
		c0.13,1.47,0.71,2.67,1.73,3.62c1.03,0.95,2.47,1.42,4.33,1.42c1.92,0,3.42-0.46,4.5-1.39c1.08-0.93,1.61-2.13,1.61-3.59
		c0-1.14-0.34-2.07-1-2.79c-0.67-0.72-1.5-1.27-2.49-1.66c-0.99-0.39-2.37-0.81-4.13-1.27c-2.22-0.59-4.02-1.18-5.4-1.78
		c-1.38-0.6-2.57-1.54-3.54-2.81c-0.98-1.27-1.47-2.97-1.47-5.08c0-1.96,0.49-3.67,1.47-5.13c0.98-1.47,2.35-2.59,4.11-3.37
		c1.76-0.78,3.8-1.17,6.11-1.17c3.29,0,5.99,0.82,8.09,2.47c2.1,1.65,3.27,3.9,3.5,6.77h-6.16c-0.1-1.24-0.68-2.3-1.76-3.18
		c-1.08-0.88-2.49-1.32-4.25-1.32c-1.6,0-2.9,0.41-3.91,1.22c-1.01,0.82-1.52,1.99-1.52,3.52c0,1.04,0.32,1.9,0.95,2.57
		c0.64,0.67,1.44,1.2,2.42,1.59c0.98,0.39,2.31,0.81,4.01,1.27c2.25,0.62,4.08,1.24,5.5,1.86c1.42,0.62,2.62,1.57,3.62,2.86
		c0.99,1.29,1.49,3.01,1.49,5.16c0,1.73-0.46,3.36-1.39,4.89c-0.93,1.53-2.28,2.76-4.06,3.69c-1.78,0.93-3.87,1.39-6.28,1.39
		C385.74,260.34,383.68,259.94,381.86,259.14z"/>
</g>
<g>
	<path class="st1" d="M-912.05,0h17.83c0.9,0,1.65,0.75,1.65,1.65v178.46c-0.01,0.91-0.74,1.64-1.65,1.65h-17.83
		c-0.91-0.01-1.64-0.74-1.65-1.65V1.65C-913.7,0.75-912.96,0-912.05,0z M-789.49,146.84v4.5c0,1.95-0.3,4.64-1.05,8.09
		c-0.6,3.29-2.4,6.74-5.24,10.04c-2.85,3.3-7.04,6.3-12.74,8.69c-5.69,2.4-13.49,3.6-23.52,3.6c-10.04,0-17.83-1.2-23.52-3.6
		c-5.69-2.4-9.89-5.25-12.74-8.69c-2.85-3.3-4.65-6.74-5.25-10.19c-0.6-3.45-1.05-5.99-1.05-7.94V49.75c0-0.9,0.75-1.65,1.65-1.65
		h17.83c0.9,0,1.65,0.74,1.65,1.65v95.15c0,3.15,0.45,5.39,0.9,7.19c0.45,1.8,1.34,3.6,2.69,5.09c1.35,1.65,3.45,3,6.3,4.05
		c2.69,1.05,6.44,1.65,11.09,1.65c4.79,0,8.69-0.61,11.53-1.65c2.85-1.05,4.95-2.4,6.45-3.9c1.5-1.5,2.54-3.15,3-4.95
		c0.45-1.8,1.05-3.29,1.05-7.64v-95c0-0.9,0.75-1.65,1.65-1.65h17.83c0.9,0,1.65,0.74,1.65,1.65v97.1L-789.49,146.84L-789.49,146.84
		z M-728.8,48.1h11.99c1.05,0,1.8,1.05,1.5,2.09l-4.04,15.58c-0.15,0.75-0.9,1.2-1.5,1.2h-8.39c-4.5,0-8.09,0.61-10.94,1.8
		c-2.69,1.2-4.95,2.55-6.44,4.2c-1.33,1.4-2.31,3.09-2.85,4.95c-0.45,1.8-0.61,3.45-0.61,4.95v97.4c-0.01,0.91-0.74,1.64-1.65,1.65
		h-17.98c-0.91-0.01-1.64-0.74-1.65-1.65V78.67c0-1.8,0.3-4.5,1.05-7.94c0.6-3.45,2.4-6.74,5.24-10.19c2.85-3.3,7.05-6.3,12.74-8.69
		C-746.78,49.3-738.84,48.1-728.8,48.1z M-973.79,48.1c14.53,0,25.17,2.85,32.07,8.54c6.74,5.7,10.19,12.89,10.19,21.43v73.42
		c0,3-0.6,6.3-1.65,9.74c-1.05,3.6-3.15,6.89-6.3,9.74c-3.15,3-7.49,5.39-12.88,7.49c-5.4,1.95-12.59,3-21.28,3
		c-8.84,0-15.88-1.05-21.28-3c-5.39-1.95-9.75-4.49-12.89-7.49c-3.15-3-5.24-6.3-6.3-9.75c-1.05-3.59-1.65-6.89-1.65-9.73v-11.68
		c0-6.3,1.65-11.99,4.79-17.09c3.3-5.09,7.79-8.84,13.79-10.94c3-1.05,6.3-2.09,10.19-3.44c3.75-1.35,7.49-2.54,11.08-3.9
		c3.6-1.2,6.6-2.4,9.29-3.29c2.7-1.05,4.35-1.5,4.95-1.8c0.6-0.3,1.5-0.75,2.54-1.35c1.05-0.6,2.1-1.5,3.15-2.54
		c1.05-1.2,1.8-2.55,2.55-3.9c0.75-1.5,1.05-3.3,1.05-5.25v-4.64c0-1.65-0.3-3.29-1.05-5.09c-0.6-1.8-1.8-3.3-3.44-4.8
		c-1.65-1.5-3.9-2.69-6.6-3.6c-2.69-0.9-6.14-1.34-10.33-1.34c-8.24,0-13.78,1.65-16.78,5.09c-2.58,3.03-4.11,6.81-4.35,10.79
		c0,0.9-0.75,1.5-1.65,1.5h-17.98c-0.91-0.01-1.64-0.74-1.65-1.65v-4.35c0-4.2,0.75-8.09,2.4-11.68c1.5-3.6,4.04-6.9,7.64-9.59
		c3.45-2.7,7.8-4.95,13.19-6.44C-987.72,49-981.28,48.1-973.79,48.1z M-952.51,113.88c-0.28,1.55-1.2,2.92-2.55,3.75
		c-1.35,0.9-2.54,1.34-3.75,1.8c-2.54,0.9-5.24,1.8-8.09,2.85c-2.85,1.05-5.55,2.1-8.09,2.85c-3,1.05-5.84,1.95-8.39,3
		c-2.04,0.89-3.96,2.05-5.69,3.45c-1.5,1.34-2.85,3-4.06,5.09c-1.19,2.1-1.79,4.65-1.79,7.79c0,6.3,1.5,10.94,4.49,14.09
		c3,3,8.54,4.64,16.64,4.64c8.24,0,13.94-1.65,16.93-4.79c3-3.29,4.5-7.79,4.5-13.78v-30.72H-952.51z M-664.96,48.1
		c14.53,0,25.17,2.85,32.07,8.54c6.74,5.7,10.19,12.89,10.19,21.43v73.42c0,3-0.6,6.3-1.65,9.74c-1.05,3.6-3.15,6.89-6.3,9.74
		c-3.15,3-7.49,5.39-12.89,7.49c-5.39,1.95-12.59,3-21.27,3c-8.84,0-15.88-1.05-21.28-3c-5.39-1.95-9.75-4.49-12.89-7.49
		c-3.15-3-5.24-6.3-6.3-9.75c-1.05-3.59-1.65-6.89-1.65-9.73v-11.68c0-6.3,1.65-11.99,4.79-17.09c3.3-5.09,7.79-8.84,13.78-10.94
		c3-1.05,6.3-2.09,10.19-3.44c3.74-1.35,7.49-2.54,11.08-3.9c3.6-1.2,6.6-2.4,9.29-3.29c2.69-1.05,4.35-1.5,4.95-1.8
		c0.6-0.3,1.5-0.75,2.54-1.35c1.05-0.6,2.1-1.5,3.15-2.54c1.05-1.2,1.8-2.55,2.55-3.9c0.75-1.5,1.05-3.3,1.05-5.25v-4.64
		c0-1.65-0.3-3.29-1.05-5.09c-0.6-1.8-1.8-3.3-3.45-4.8c-1.64-1.5-3.89-2.69-6.59-3.6c-2.7-0.9-6.14-1.34-10.34-1.34
		c-8.24,0-13.78,1.65-16.78,5.09c-2.58,3.03-4.11,6.81-4.35,10.79c0,0.9-0.75,1.5-1.65,1.5h-17.98c-0.91-0.01-1.64-0.74-1.65-1.65
		v-4.35c0-4.2,0.75-8.09,2.4-11.68c1.5-3.6,4.04-6.9,7.64-9.59c3.45-2.7,7.79-4.95,13.18-6.44C-678.75,49-672.46,48.1-664.96,48.1z
		 M-643.69,113.88c-0.28,1.55-1.2,2.92-2.55,3.75c-1.35,0.9-2.54,1.34-3.75,1.8c-2.54,0.9-5.24,1.8-8.09,2.85
		c-2.85,1.05-5.54,2.1-8.09,2.85c-3,1.05-5.85,1.95-8.39,3c-2.04,0.89-3.96,2.05-5.7,3.45c-1.5,1.34-2.85,3-4.04,5.09
		c-1.2,2.1-1.8,4.65-1.8,7.79c0,6.3,1.5,10.94,4.49,14.09c3,3,8.54,4.64,16.64,4.64c8.24,0,13.94-1.65,16.93-4.79
		c3-3.29,4.49-7.79,4.49-13.78v-30.72H-643.69z"/>
	<rect x="-1020" y="210.69" class="st4" width="401.1" height="3.5"/>
	<rect x="-1020" y="270.11" class="st4" width="401.1" height="3.5"/>
	<path class="st4" d="M-998.66,226.03v4.55h-14.42v10.02h11.24v4.55h-11.24V260h-5.57v-33.97H-998.66z"/>
	<path class="st4" d="M-919.76,226.03V260h-5.57v-33.97H-919.76z"/>
	<path class="st4" d="M-838.71,255.5h11.49v4.5h-17.06v-33.97h5.57V255.5z"/>
	<path class="st4" d="M-718.65,226.03V260h-5.57v-23.27L-734.59,260h-3.86l-10.41-23.27V260h-5.57v-33.97h6.01l11.93,26.64
		l11.88-26.64H-718.65z"/>
	<path class="st4" d="M-638.14,259.14c-1.83-0.8-3.26-1.93-4.3-3.4c-1.04-1.47-1.56-3.18-1.56-5.13h5.96
		c0.13,1.47,0.71,2.67,1.73,3.62c1.03,0.95,2.47,1.42,4.33,1.42c1.92,0,3.42-0.46,4.5-1.39c1.08-0.93,1.61-2.13,1.61-3.59
		c0-1.14-0.34-2.07-1-2.79c-0.67-0.72-1.5-1.27-2.49-1.66c-0.99-0.39-2.37-0.81-4.13-1.27c-2.22-0.59-4.02-1.18-5.4-1.78
		c-1.38-0.6-2.57-1.54-3.54-2.81c-0.98-1.27-1.47-2.97-1.47-5.08c0-1.96,0.49-3.67,1.47-5.13c0.98-1.47,2.35-2.59,4.11-3.37
		c1.76-0.78,3.8-1.17,6.11-1.17c3.29,0,5.99,0.82,8.09,2.47c2.1,1.65,3.27,3.9,3.5,6.77h-6.16c-0.1-1.24-0.68-2.3-1.76-3.18
		c-1.08-0.88-2.49-1.32-4.25-1.32c-1.6,0-2.9,0.41-3.91,1.22c-1.01,0.82-1.52,1.99-1.52,3.52c0,1.04,0.32,1.9,0.95,2.57
		c0.64,0.67,1.44,1.2,2.42,1.59c0.98,0.39,2.31,0.81,4.01,1.27c2.25,0.62,4.08,1.24,5.5,1.86c1.42,0.62,2.62,1.57,3.62,2.86
		c0.99,1.29,1.49,3.01,1.49,5.16c0,1.73-0.46,3.36-1.39,4.89c-0.93,1.53-2.28,2.76-4.06,3.69c-1.78,0.93-3.87,1.39-6.28,1.39
		C-634.26,260.34-636.32,259.94-638.14,259.14z"/>
</g>
<g>
	<g>
		<path class="st3" d="M-2055.06,88.9h7.54c0.38,0,0.7,0.32,0.7,0.7v75.44c0,0.38-0.31,0.69-0.7,0.7h-7.54
			c-0.38,0-0.69-0.31-0.7-0.7V89.6C-2055.75,89.22-2055.44,88.9-2055.06,88.9z M-2003.25,150.98v1.9c0,0.82-0.13,1.96-0.44,3.42
			c-0.25,1.39-1.01,2.85-2.22,4.24c-1.2,1.39-2.98,2.66-5.38,3.67c-2.41,1.01-5.7,1.52-9.94,1.52c-4.25,0-7.54-0.51-9.94-1.52
			s-4.18-2.22-5.38-3.67c-1.2-1.39-1.97-2.85-2.22-4.31c-0.25-1.46-0.44-2.53-0.44-3.36v-42.94c0-0.38,0.32-0.7,0.7-0.7h7.54
			c0.38,0,0.7,0.31,0.7,0.7v40.22c0,1.33,0.19,2.28,0.38,3.04c0.19,0.76,0.57,1.52,1.14,2.15c0.57,0.7,1.46,1.27,2.66,1.71
			c1.14,0.44,2.72,0.7,4.69,0.7c2.03,0,3.67-0.26,4.87-0.7c1.2-0.45,2.09-1.01,2.73-1.65c0.63-0.63,1.07-1.33,1.27-2.09
			c0.19-0.76,0.44-1.39,0.44-3.23v-40.16c0-0.38,0.32-0.7,0.7-0.7h7.54c0.38,0,0.7,0.31,0.7,0.7v41.05L-2003.25,150.98
			L-2003.25,150.98z M-1977.59,109.24h5.07c0.45,0,0.76,0.44,0.63,0.89l-1.71,6.59c-0.06,0.32-0.38,0.51-0.63,0.51h-3.55
			c-1.9,0-3.42,0.26-4.62,0.76c-1.14,0.51-2.09,1.08-2.72,1.77c-0.56,0.59-0.97,1.31-1.2,2.09c-0.19,0.76-0.26,1.46-0.26,2.09v41.17
			c0,0.38-0.31,0.69-0.7,0.7h-7.6c-0.38,0-0.69-0.31-0.7-0.7v-42.94c0-0.76,0.13-1.9,0.44-3.36c0.25-1.46,1.01-2.85,2.22-4.31
			c1.2-1.39,2.98-2.66,5.38-3.67C-1985.19,109.74-1981.83,109.24-1977.59,109.24z M-2081.15,109.24c6.14,0,10.64,1.2,13.55,3.61
			c2.85,2.41,4.31,5.45,4.31,9.06v31.04c0,1.27-0.25,2.66-0.7,4.12c-0.44,1.52-1.33,2.91-2.66,4.12c-1.33,1.27-3.17,2.28-5.45,3.17
			c-2.28,0.82-5.32,1.27-8.99,1.27c-3.74,0-6.71-0.44-8.99-1.27s-4.12-1.9-5.45-3.17c-1.33-1.27-2.22-2.66-2.66-4.12
			c-0.44-1.52-0.7-2.91-0.7-4.11V148c0-2.66,0.7-5.07,2.03-7.22c1.39-2.15,3.29-3.74,5.83-4.62c1.27-0.44,2.66-0.89,4.31-1.46
			c1.58-0.57,3.17-1.07,4.69-1.65c1.52-0.51,2.79-1.01,3.93-1.39c1.14-0.44,1.84-0.63,2.09-0.76c0.25-0.13,0.63-0.32,1.07-0.57
			c0.45-0.25,0.89-0.63,1.33-1.07c0.45-0.51,0.76-1.08,1.08-1.65c0.32-0.63,0.45-1.39,0.45-2.22v-1.96c0-0.7-0.13-1.39-0.45-2.15
			c-0.25-0.76-0.76-1.39-1.46-2.03c-0.7-0.63-1.65-1.14-2.79-1.52c-1.14-0.38-2.59-0.57-4.37-0.57c-3.48,0-5.83,0.7-7.09,2.15
			c-1.09,1.28-1.74,2.88-1.84,4.56c0,0.38-0.32,0.63-0.7,0.63h-7.6c-0.38,0-0.69-0.31-0.7-0.7v-1.84c0-1.77,0.32-3.42,1.01-4.94
			c0.63-1.52,1.71-2.92,3.23-4.06c1.46-1.14,3.3-2.09,5.58-2.72C-2087.04,109.61-2084.32,109.24-2081.15,109.24z M-2072.16,137.04
			c-0.12,0.66-0.51,1.23-1.08,1.58c-0.57,0.38-1.07,0.57-1.58,0.76c-1.07,0.38-2.22,0.76-3.42,1.2c-1.2,0.44-2.34,0.89-3.42,1.2
			c-1.27,0.45-2.47,0.82-3.55,1.27c-0.86,0.38-1.67,0.87-2.41,1.46c-0.63,0.57-1.21,1.27-1.71,2.15c-0.5,0.89-0.76,1.97-0.76,3.29
			c0,2.66,0.63,4.62,1.9,5.95c1.27,1.27,3.61,1.96,7.03,1.96c3.48,0,5.89-0.7,7.16-2.03c1.27-1.39,1.9-3.29,1.9-5.83v-12.98
			H-2072.16z M-1950.61,109.24c6.14,0,10.64,1.2,13.55,3.61c2.85,2.41,4.31,5.45,4.31,9.06v31.04c0,1.27-0.25,2.66-0.7,4.12
			c-0.45,1.52-1.33,2.91-2.66,4.12c-1.33,1.27-3.17,2.28-5.45,3.17c-2.28,0.82-5.32,1.27-8.99,1.27c-3.74,0-6.71-0.44-8.99-1.27
			s-4.12-1.9-5.45-3.17c-1.33-1.27-2.22-2.66-2.66-4.12c-0.44-1.52-0.7-2.91-0.7-4.11V148c0-2.66,0.7-5.07,2.03-7.22
			c1.39-2.15,3.29-3.74,5.83-4.62c1.27-0.44,2.66-0.89,4.31-1.46c1.58-0.57,3.17-1.07,4.69-1.65c1.52-0.51,2.79-1.01,3.93-1.39
			c1.14-0.44,1.84-0.63,2.09-0.76c0.25-0.13,0.63-0.32,1.07-0.57c0.45-0.25,0.89-0.63,1.33-1.07c0.45-0.51,0.76-1.08,1.08-1.65
			c0.32-0.63,0.44-1.39,0.44-2.22v-1.96c0-0.7-0.13-1.39-0.44-2.15c-0.25-0.76-0.76-1.39-1.46-2.03c-0.69-0.63-1.65-1.14-2.78-1.52
			c-1.14-0.38-2.6-0.57-4.37-0.57c-3.49,0-5.83,0.7-7.09,2.15c-1.09,1.28-1.74,2.88-1.84,4.56c0,0.38-0.32,0.63-0.7,0.63h-7.6
			c-0.38,0-0.69-0.31-0.7-0.7v-1.84c0-1.77,0.32-3.42,1.01-4.94c0.63-1.52,1.71-2.92,3.23-4.06c1.46-1.14,3.29-2.09,5.57-2.72
			C-1956.43,109.61-1953.78,109.24-1950.61,109.24z M-1941.61,137.04c-0.12,0.66-0.51,1.23-1.08,1.58
			c-0.57,0.38-1.07,0.57-1.58,0.76c-1.07,0.38-2.22,0.76-3.42,1.2c-1.2,0.44-2.34,0.89-3.42,1.2c-1.27,0.45-2.47,0.82-3.55,1.27
			c-0.86,0.38-1.67,0.87-2.41,1.46c-0.63,0.57-1.2,1.27-1.71,2.15c-0.51,0.89-0.76,1.97-0.76,3.29c0,2.66,0.63,4.62,1.9,5.95
			c1.27,1.27,3.61,1.96,7.03,1.96c3.48,0,5.89-0.7,7.16-2.03c1.27-1.39,1.9-3.29,1.9-5.83v-12.98H-1941.61z"/>
		<path class="st3" d="M-1911.41,85.74v102.12l331.58,68.23V17.52L-1911.41,85.74z M-1854.97,120.95h-20.75v9.72h18.68v12.37h-18.68
			v22.09h-13.05v-56.55h33.8V120.95z M-1837.13,165.14h-13.05v-56.55h13.05V165.14z M-1798.45,165.14h-32.49v-56.55h13.05v44.18
			h19.44V165.14z M-1737.8,165.14h-12.77v-32.7h-0.38l-10.7,32.25h-7.7l-10.7-32.47h-0.38v32.92h-12.77v-56.55h16.24l11.17,32.03
			h0.56l11.17-32.03h16.24V165.14z M-1697.76,161.31c-3.46,2.99-8.23,4.49-14.32,4.49c-4.18,0-7.82-0.73-10.93-2.18
			c-3.11-1.45-5.52-3.7-7.23-6.72c-1.71-3.03-2.58-6.91-2.59-11.64h12.39c0.11,2.6,0.87,4.57,2.29,5.92
			c1.42,1.35,3.38,2.03,5.88,2.03c2.1,0,3.68-0.44,4.75-1.33c1.07-0.88,1.62-2.02,1.63-3.42c-0.02-1.29-0.56-2.36-1.62-3.22
			c-1.06-0.86-2.93-1.62-5.61-2.31l-4.79-1.22c-4.26-1.09-7.61-2.9-10.06-5.45c-2.45-2.55-3.67-6.03-3.65-10.45
			c-0.02-3.59,0.8-6.73,2.45-9.43c1.65-2.7,3.94-4.8,6.88-6.31c2.93-1.51,6.3-2.26,10.1-2.26c3.88,0,7.24,0.76,10.07,2.29
			c2.83,1.53,5.02,3.68,6.56,6.45c1.54,2.77,2.32,6.01,2.34,9.71h-12.49c-0.13-1.84-0.71-3.28-1.75-4.31
			c-1.04-1.03-2.62-1.55-4.73-1.55c-2.02,0-3.49,0.41-4.41,1.22c-0.92,0.81-1.39,1.84-1.41,3.09c-0.06,1.34,0.43,2.44,1.49,3.29
			c1.06,0.85,2.72,1.56,4.99,2.13l3.94,0.99c5.31,1.34,9.13,3.49,11.48,6.45c2.35,2.96,3.53,6.59,3.54,10.89
			C-1692.56,154.04-1694.3,158.32-1697.76,161.31z"/>
	</g>
	<path class="st3" d="M-2055.06,88.9h7.54c0.38,0,0.7,0.32,0.7,0.7v75.44c0,0.38-0.31,0.69-0.7,0.7h-7.54c-0.38,0-0.69-0.31-0.7-0.7
		V89.6C-2055.75,89.22-2055.44,88.9-2055.06,88.9z M-2003.25,150.98v1.9c0,0.82-0.13,1.96-0.44,3.42c-0.25,1.39-1.01,2.85-2.22,4.24
		c-1.2,1.39-2.98,2.66-5.38,3.67c-2.41,1.01-5.7,1.52-9.94,1.52c-4.25,0-7.54-0.51-9.94-1.52s-4.18-2.22-5.38-3.67
		c-1.2-1.39-1.97-2.85-2.22-4.31c-0.25-1.46-0.44-2.53-0.44-3.36v-42.94c0-0.38,0.32-0.7,0.7-0.7h7.54c0.38,0,0.7,0.31,0.7,0.7
		v40.22c0,1.33,0.19,2.28,0.38,3.04c0.19,0.76,0.57,1.52,1.14,2.15c0.57,0.7,1.46,1.27,2.66,1.71c1.14,0.44,2.72,0.7,4.69,0.7
		c2.03,0,3.67-0.26,4.87-0.7c1.2-0.45,2.09-1.01,2.73-1.65c0.63-0.63,1.07-1.33,1.27-2.09c0.19-0.76,0.44-1.39,0.44-3.23v-40.16
		c0-0.38,0.32-0.7,0.7-0.7h7.54c0.38,0,0.7,0.31,0.7,0.7v41.05L-2003.25,150.98L-2003.25,150.98z M-1977.59,109.24h5.07
		c0.45,0,0.76,0.44,0.63,0.89l-1.71,6.59c-0.06,0.32-0.38,0.51-0.63,0.51h-3.55c-1.9,0-3.42,0.26-4.62,0.76
		c-1.14,0.51-2.09,1.08-2.72,1.77c-0.56,0.59-0.97,1.31-1.2,2.09c-0.19,0.76-0.26,1.46-0.26,2.09v41.17c0,0.38-0.31,0.69-0.7,0.7
		h-7.6c-0.38,0-0.69-0.31-0.7-0.7v-42.94c0-0.76,0.13-1.9,0.44-3.36c0.25-1.46,1.01-2.85,2.22-4.31c1.2-1.39,2.98-2.66,5.38-3.67
		C-1985.19,109.74-1981.83,109.24-1977.59,109.24z M-2081.15,109.24c6.14,0,10.64,1.2,13.55,3.61c2.85,2.41,4.31,5.45,4.31,9.06
		v31.04c0,1.27-0.25,2.66-0.7,4.12c-0.44,1.52-1.33,2.91-2.66,4.12c-1.33,1.27-3.17,2.28-5.45,3.17c-2.28,0.82-5.32,1.27-8.99,1.27
		c-3.74,0-6.71-0.44-8.99-1.27s-4.12-1.9-5.45-3.17c-1.33-1.27-2.22-2.66-2.66-4.12c-0.44-1.52-0.7-2.91-0.7-4.11V148
		c0-2.66,0.7-5.07,2.03-7.22c1.39-2.15,3.29-3.74,5.83-4.62c1.27-0.44,2.66-0.89,4.31-1.46c1.58-0.57,3.17-1.07,4.69-1.65
		c1.52-0.51,2.79-1.01,3.93-1.39c1.14-0.44,1.84-0.63,2.09-0.76c0.25-0.13,0.63-0.32,1.07-0.57c0.45-0.25,0.89-0.63,1.33-1.07
		c0.45-0.51,0.76-1.08,1.08-1.65c0.32-0.63,0.45-1.39,0.45-2.22v-1.96c0-0.7-0.13-1.39-0.45-2.15c-0.25-0.76-0.76-1.39-1.46-2.03
		c-0.7-0.63-1.65-1.14-2.79-1.52c-1.14-0.38-2.59-0.57-4.37-0.57c-3.48,0-5.83,0.7-7.09,2.15c-1.09,1.28-1.74,2.88-1.84,4.56
		c0,0.38-0.32,0.63-0.7,0.63h-7.6c-0.38,0-0.69-0.31-0.7-0.7v-1.84c0-1.77,0.32-3.42,1.01-4.94c0.63-1.52,1.71-2.92,3.23-4.06
		c1.46-1.14,3.3-2.09,5.58-2.72C-2087.04,109.61-2084.32,109.24-2081.15,109.24z M-2072.16,137.04c-0.12,0.66-0.51,1.23-1.08,1.58
		c-0.57,0.38-1.07,0.57-1.58,0.76c-1.07,0.38-2.22,0.76-3.42,1.2c-1.2,0.44-2.34,0.89-3.42,1.2c-1.27,0.45-2.47,0.82-3.55,1.27
		c-0.86,0.38-1.67,0.87-2.41,1.46c-0.63,0.57-1.21,1.27-1.71,2.15c-0.5,0.89-0.76,1.97-0.76,3.29c0,2.66,0.63,4.62,1.9,5.95
		c1.27,1.27,3.61,1.96,7.03,1.96c3.48,0,5.89-0.7,7.16-2.03c1.27-1.39,1.9-3.29,1.9-5.83v-12.98H-2072.16z M-1950.61,109.24
		c6.14,0,10.64,1.2,13.55,3.61c2.85,2.41,4.31,5.45,4.31,9.06v31.04c0,1.27-0.25,2.66-0.7,4.12c-0.45,1.52-1.33,2.91-2.66,4.12
		c-1.33,1.27-3.17,2.28-5.45,3.17c-2.28,0.82-5.32,1.27-8.99,1.27c-3.74,0-6.71-0.44-8.99-1.27s-4.12-1.9-5.45-3.17
		c-1.33-1.27-2.22-2.66-2.66-4.12c-0.44-1.52-0.7-2.91-0.7-4.11V148c0-2.66,0.7-5.07,2.03-7.22c1.39-2.15,3.29-3.74,5.83-4.62
		c1.27-0.44,2.66-0.89,4.31-1.46c1.58-0.57,3.17-1.07,4.69-1.65c1.52-0.51,2.79-1.01,3.93-1.39c1.14-0.44,1.84-0.63,2.09-0.76
		c0.25-0.13,0.63-0.32,1.07-0.57c0.45-0.25,0.89-0.63,1.33-1.07c0.45-0.51,0.76-1.08,1.08-1.65c0.32-0.63,0.44-1.39,0.44-2.22v-1.96
		c0-0.7-0.13-1.39-0.44-2.15c-0.25-0.76-0.76-1.39-1.46-2.03c-0.69-0.63-1.65-1.14-2.78-1.52c-1.14-0.38-2.6-0.57-4.37-0.57
		c-3.49,0-5.83,0.7-7.09,2.15c-1.09,1.28-1.74,2.88-1.84,4.56c0,0.38-0.32,0.63-0.7,0.63h-7.6c-0.38,0-0.69-0.31-0.7-0.7v-1.84
		c0-1.77,0.32-3.42,1.01-4.94c0.63-1.52,1.71-2.92,3.23-4.06c1.46-1.14,3.29-2.09,5.57-2.72
		C-1956.43,109.61-1953.78,109.24-1950.61,109.24z M-1941.61,137.04c-0.12,0.66-0.51,1.23-1.08,1.58c-0.57,0.38-1.07,0.57-1.58,0.76
		c-1.07,0.38-2.22,0.76-3.42,1.2c-1.2,0.44-2.34,0.89-3.42,1.2c-1.27,0.45-2.47,0.82-3.55,1.27c-0.86,0.38-1.67,0.87-2.41,1.46
		c-0.63,0.57-1.2,1.27-1.71,2.15c-0.51,0.89-0.76,1.97-0.76,3.29c0,2.66,0.63,4.62,1.9,5.95c1.27,1.27,3.61,1.96,7.03,1.96
		c3.48,0,5.89-0.7,7.16-2.03c1.27-1.39,1.9-3.29,1.9-5.83v-12.98H-1941.61z"/>
	<path class="st3" d="M-1911.41,85.74v102.12l331.58,68.23V17.52L-1911.41,85.74z M-1854.97,120.95h-20.75v9.72h18.68v12.37h-18.68
		v22.09h-13.05v-56.55h33.8V120.95z M-1837.13,165.14h-13.05v-56.55h13.05V165.14z M-1798.45,165.14h-32.49v-56.55h13.05v44.18
		h19.44V165.14z M-1737.8,165.14h-12.77v-32.7h-0.38l-10.7,32.25h-7.7l-10.7-32.47h-0.38v32.92h-12.77v-56.55h16.24l11.17,32.03
		h0.56l11.17-32.03h16.24V165.14z M-1697.76,161.31c-3.46,2.99-8.23,4.49-14.32,4.49c-4.18,0-7.82-0.73-10.93-2.18
		c-3.11-1.45-5.52-3.7-7.23-6.72c-1.71-3.03-2.58-6.91-2.59-11.64h12.39c0.11,2.6,0.87,4.57,2.29,5.92
		c1.42,1.35,3.38,2.03,5.88,2.03c2.1,0,3.68-0.44,4.75-1.33c1.07-0.88,1.62-2.02,1.63-3.42c-0.02-1.29-0.56-2.36-1.62-3.22
		c-1.06-0.86-2.93-1.62-5.61-2.31l-4.79-1.22c-4.26-1.09-7.61-2.9-10.06-5.45c-2.45-2.55-3.67-6.03-3.65-10.45
		c-0.02-3.59,0.8-6.73,2.45-9.43c1.65-2.7,3.94-4.8,6.88-6.31c2.93-1.51,6.3-2.26,10.1-2.26c3.88,0,7.24,0.76,10.07,2.29
		c2.83,1.53,5.02,3.68,6.56,6.45c1.54,2.77,2.32,6.01,2.34,9.71h-12.49c-0.13-1.84-0.71-3.28-1.75-4.31
		c-1.04-1.03-2.62-1.55-4.73-1.55c-2.02,0-3.49,0.41-4.41,1.22c-0.92,0.81-1.39,1.84-1.41,3.09c-0.06,1.34,0.43,2.44,1.49,3.29
		c1.06,0.85,2.72,1.56,4.99,2.13l3.94,0.99c5.31,1.34,9.13,3.49,11.48,6.45c2.35,2.96,3.53,6.59,3.54,10.89
		C-1692.56,154.04-1694.3,158.32-1697.76,161.31z"/>
</g>
</svg>
